<mxfile host="www.draw.io" modified="2020-01-09T01:42:40.224Z" agent="Mozilla/5.0 (Windows NT 6.1; Win64; x64) AppleWebKit/537.36 (KHTML, like Gecko) Chrome/79.0.3945.88 Safari/537.36" etag="riaYGyg3oPzj_UrYEu6u" version="12.4.9" type="github">
  <diagram id="XK1XmLQXnbIP61ymJFWy" name="第 1 页">
    <mxGraphModel dx="1662" dy="794" grid="1" gridSize="10" guides="1" tooltips="1" connect="1" arrows="1" fold="1" page="1" pageScale="1" pageWidth="827" pageHeight="1169" math="0" shadow="0">
      <root>
        <mxCell id="0"/>
        <mxCell id="1" parent="0"/>
        <mxCell id="V1tj035i3vQygvrcZHvh-6" style="edgeStyle=orthogonalEdgeStyle;rounded=0;orthogonalLoop=1;jettySize=auto;html=1;" parent="1" source="z-F6UFIMoMoyEG7H-VUW-1" target="V1tj035i3vQygvrcZHvh-5" edge="1">
          <mxGeometry relative="1" as="geometry"/>
        </mxCell>
        <mxCell id="z-F6UFIMoMoyEG7H-VUW-1" value="坡度分析" style="rounded=0;whiteSpace=wrap;html=1;" parent="1" vertex="1">
          <mxGeometry x="30" y="20" width="80" height="50" as="geometry"/>
        </mxCell>
        <mxCell id="V1tj035i3vQygvrcZHvh-21" style="edgeStyle=orthogonalEdgeStyle;rounded=0;orthogonalLoop=1;jettySize=auto;html=1;entryX=0.5;entryY=0;entryDx=0;entryDy=0;" parent="1" source="z-F6UFIMoMoyEG7H-VUW-2" target="V1tj035i3vQygvrcZHvh-19" edge="1">
          <mxGeometry relative="1" as="geometry"/>
        </mxCell>
        <mxCell id="z-F6UFIMoMoyEG7H-VUW-2" value="水资源评价" style="rounded=0;whiteSpace=wrap;html=1;" parent="1" vertex="1">
          <mxGeometry x="240" y="120" width="80" height="50" as="geometry"/>
        </mxCell>
        <mxCell id="V1tj035i3vQygvrcZHvh-24" style="edgeStyle=orthogonalEdgeStyle;rounded=0;orthogonalLoop=1;jettySize=auto;html=1;entryX=0.5;entryY=0;entryDx=0;entryDy=0;" parent="1" source="z-F6UFIMoMoyEG7H-VUW-3" target="V1tj035i3vQygvrcZHvh-22" edge="1">
          <mxGeometry relative="1" as="geometry">
            <Array as="points">
              <mxPoint x="390" y="310"/>
              <mxPoint x="325" y="310"/>
            </Array>
          </mxGeometry>
        </mxCell>
        <mxCell id="z-F6UFIMoMoyEG7H-VUW-3" value="气候评价&lt;br&gt;（光热条件）" style="rounded=0;whiteSpace=wrap;html=1;" parent="1" vertex="1">
          <mxGeometry x="350" y="120" width="80" height="50" as="geometry"/>
        </mxCell>
        <mxCell id="V1tj035i3vQygvrcZHvh-29" style="edgeStyle=orthogonalEdgeStyle;rounded=0;orthogonalLoop=1;jettySize=auto;html=1;entryX=0.5;entryY=0;entryDx=0;entryDy=0;" parent="1" source="z-F6UFIMoMoyEG7H-VUW-4" target="V1tj035i3vQygvrcZHvh-25" edge="1">
          <mxGeometry relative="1" as="geometry">
            <Array as="points">
              <mxPoint x="745" y="310"/>
              <mxPoint x="435" y="310"/>
            </Array>
          </mxGeometry>
        </mxCell>
        <mxCell id="z-F6UFIMoMoyEG7H-VUW-4" value="灾害评价&lt;br&gt;（发生频率）" style="rounded=0;whiteSpace=wrap;html=1;" parent="1" vertex="1">
          <mxGeometry x="705" y="120" width="80" height="50" as="geometry"/>
        </mxCell>
        <mxCell id="V1tj035i3vQygvrcZHvh-27" style="edgeStyle=orthogonalEdgeStyle;rounded=0;orthogonalLoop=1;jettySize=auto;html=1;entryX=0.5;entryY=0;entryDx=0;entryDy=0;" parent="1" source="z-F6UFIMoMoyEG7H-VUW-5" target="V1tj035i3vQygvrcZHvh-25" edge="1">
          <mxGeometry relative="1" as="geometry">
            <Array as="points">
              <mxPoint x="630" y="310"/>
              <mxPoint x="435" y="310"/>
            </Array>
          </mxGeometry>
        </mxCell>
        <mxCell id="z-F6UFIMoMoyEG7H-VUW-5" value="生态评价&lt;br&gt;（盐渍化敏感性）" style="rounded=0;whiteSpace=wrap;html=1;" parent="1" vertex="1">
          <mxGeometry x="580" y="120" width="100" height="50" as="geometry"/>
        </mxCell>
        <mxCell id="V1tj035i3vQygvrcZHvh-26" style="edgeStyle=orthogonalEdgeStyle;rounded=0;orthogonalLoop=1;jettySize=auto;html=1;" parent="1" source="V1tj035i3vQygvrcZHvh-1" target="V1tj035i3vQygvrcZHvh-25" edge="1">
          <mxGeometry relative="1" as="geometry"/>
        </mxCell>
        <mxCell id="V1tj035i3vQygvrcZHvh-1" value="环境评价&lt;br&gt;（土壤环境容量）" style="rounded=0;whiteSpace=wrap;html=1;" parent="1" vertex="1">
          <mxGeometry x="460" y="120" width="100" height="50" as="geometry"/>
        </mxCell>
        <mxCell id="V1tj035i3vQygvrcZHvh-8" style="edgeStyle=orthogonalEdgeStyle;rounded=0;orthogonalLoop=1;jettySize=auto;html=1;exitX=0.5;exitY=1;exitDx=0;exitDy=0;entryX=0.5;entryY=0;entryDx=0;entryDy=0;" parent="1" source="V1tj035i3vQygvrcZHvh-3" target="V1tj035i3vQygvrcZHvh-5" edge="1">
          <mxGeometry relative="1" as="geometry"/>
        </mxCell>
        <mxCell id="V1tj035i3vQygvrcZHvh-3" value="土壤质地数据" style="rounded=0;whiteSpace=wrap;html=1;" parent="1" vertex="1">
          <mxGeometry x="130" y="20" width="90" height="50" as="geometry"/>
        </mxCell>
        <mxCell id="V1tj035i3vQygvrcZHvh-20" style="edgeStyle=orthogonalEdgeStyle;rounded=0;orthogonalLoop=1;jettySize=auto;html=1;entryX=0.5;entryY=0;entryDx=0;entryDy=0;" parent="1" source="V1tj035i3vQygvrcZHvh-5" target="V1tj035i3vQygvrcZHvh-19" edge="1">
          <mxGeometry relative="1" as="geometry"/>
        </mxCell>
        <mxCell id="V1tj035i3vQygvrcZHvh-5" value="土地资源评价" style="rounded=0;whiteSpace=wrap;html=1;" parent="1" vertex="1">
          <mxGeometry x="60" y="120" width="130" height="50" as="geometry"/>
        </mxCell>
        <mxCell id="V1tj035i3vQygvrcZHvh-10" style="edgeStyle=orthogonalEdgeStyle;rounded=0;orthogonalLoop=1;jettySize=auto;html=1;entryX=0.5;entryY=0;entryDx=0;entryDy=0;" parent="1" source="V1tj035i3vQygvrcZHvh-9" target="z-F6UFIMoMoyEG7H-VUW-2" edge="1">
          <mxGeometry relative="1" as="geometry"/>
        </mxCell>
        <mxCell id="V1tj035i3vQygvrcZHvh-9" value="降水量&lt;br&gt;或干旱指数" style="rounded=0;whiteSpace=wrap;html=1;" parent="1" vertex="1">
          <mxGeometry x="235" y="20" width="90" height="50" as="geometry"/>
        </mxCell>
        <mxCell id="V1tj035i3vQygvrcZHvh-12" style="edgeStyle=orthogonalEdgeStyle;rounded=0;orthogonalLoop=1;jettySize=auto;html=1;" parent="1" source="V1tj035i3vQygvrcZHvh-11" target="z-F6UFIMoMoyEG7H-VUW-3" edge="1">
          <mxGeometry relative="1" as="geometry"/>
        </mxCell>
        <mxCell id="V1tj035i3vQygvrcZHvh-11" value="积温图层" style="rounded=0;whiteSpace=wrap;html=1;" parent="1" vertex="1">
          <mxGeometry x="345" y="20" width="90" height="50" as="geometry"/>
        </mxCell>
        <mxCell id="V1tj035i3vQygvrcZHvh-14" style="edgeStyle=orthogonalEdgeStyle;rounded=0;orthogonalLoop=1;jettySize=auto;html=1;entryX=0.5;entryY=0;entryDx=0;entryDy=0;" parent="1" source="V1tj035i3vQygvrcZHvh-13" target="V1tj035i3vQygvrcZHvh-1" edge="1">
          <mxGeometry relative="1" as="geometry"/>
        </mxCell>
        <mxCell id="V1tj035i3vQygvrcZHvh-13" value="污染物含量" style="rounded=0;whiteSpace=wrap;html=1;" parent="1" vertex="1">
          <mxGeometry x="465" y="20" width="90" height="50" as="geometry"/>
        </mxCell>
        <mxCell id="V1tj035i3vQygvrcZHvh-16" value="" style="edgeStyle=orthogonalEdgeStyle;rounded=0;orthogonalLoop=1;jettySize=auto;html=1;" parent="1" source="V1tj035i3vQygvrcZHvh-15" target="z-F6UFIMoMoyEG7H-VUW-4" edge="1">
          <mxGeometry relative="1" as="geometry"/>
        </mxCell>
        <mxCell id="V1tj035i3vQygvrcZHvh-15" value="历史灾害频率" style="rounded=0;whiteSpace=wrap;html=1;" parent="1" vertex="1">
          <mxGeometry x="700" y="20" width="90" height="50" as="geometry"/>
        </mxCell>
        <mxCell id="V1tj035i3vQygvrcZHvh-18" value="" style="edgeStyle=orthogonalEdgeStyle;rounded=0;orthogonalLoop=1;jettySize=auto;html=1;" parent="1" source="V1tj035i3vQygvrcZHvh-17" target="z-F6UFIMoMoyEG7H-VUW-5" edge="1">
          <mxGeometry relative="1" as="geometry"/>
        </mxCell>
        <mxCell id="V1tj035i3vQygvrcZHvh-17" value="生态保护红线？" style="rounded=0;whiteSpace=wrap;html=1;" parent="1" vertex="1">
          <mxGeometry x="585" y="20" width="90" height="50" as="geometry"/>
        </mxCell>
        <mxCell id="V1tj035i3vQygvrcZHvh-23" style="edgeStyle=orthogonalEdgeStyle;rounded=0;orthogonalLoop=1;jettySize=auto;html=1;entryX=0.5;entryY=0;entryDx=0;entryDy=0;" parent="1" source="V1tj035i3vQygvrcZHvh-19" target="V1tj035i3vQygvrcZHvh-22" edge="1">
          <mxGeometry relative="1" as="geometry"/>
        </mxCell>
        <mxCell id="V1tj035i3vQygvrcZHvh-19" value="水土资源基础&lt;br&gt;判别矩阵" style="rounded=0;whiteSpace=wrap;html=1;" parent="1" vertex="1">
          <mxGeometry x="140" y="230" width="130" height="50" as="geometry"/>
        </mxCell>
        <mxCell id="V1tj035i3vQygvrcZHvh-28" style="edgeStyle=orthogonalEdgeStyle;rounded=0;orthogonalLoop=1;jettySize=auto;html=1;entryX=0.5;entryY=0;entryDx=0;entryDy=0;" parent="1" source="V1tj035i3vQygvrcZHvh-22" target="V1tj035i3vQygvrcZHvh-25" edge="1">
          <mxGeometry relative="1" as="geometry"/>
        </mxCell>
        <mxCell id="V1tj035i3vQygvrcZHvh-22" value="初判&lt;br&gt;农业生产条件等级" style="rounded=0;whiteSpace=wrap;html=1;" parent="1" vertex="1">
          <mxGeometry x="260" y="340" width="130" height="50" as="geometry"/>
        </mxCell>
        <mxCell id="V1tj035i3vQygvrcZHvh-31" value="" style="edgeStyle=orthogonalEdgeStyle;rounded=0;orthogonalLoop=1;jettySize=auto;html=1;" parent="1" source="V1tj035i3vQygvrcZHvh-25" target="V1tj035i3vQygvrcZHvh-30" edge="1">
          <mxGeometry relative="1" as="geometry"/>
        </mxCell>
        <mxCell id="V1tj035i3vQygvrcZHvh-25" value="修正&lt;br&gt;农业生产条件等级" style="rounded=0;whiteSpace=wrap;html=1;" parent="1" vertex="1">
          <mxGeometry x="370" y="450" width="130" height="50" as="geometry"/>
        </mxCell>
        <mxCell id="V1tj035i3vQygvrcZHvh-30" value="确定适宜性等级" style="rounded=0;whiteSpace=wrap;html=1;" parent="1" vertex="1">
          <mxGeometry x="370" y="540" width="130" height="50" as="geometry"/>
        </mxCell>
      </root>
    </mxGraphModel>
  </diagram>
</mxfile>
